<svg xmlns="http://www.w3.org/2000/svg" viewBox="0 0 100 100" width="100" height="100">
  <!-- Outer circle with tan/gray left half -->
  <circle cx="50" cy="50" r="48" fill="#d4cdc5"/>
  
  <!-- Blue right half -->
  <path d="M50 2 A48 48 0 0 1 50 98 L50 50 Z" fill="#4ab3e8"/>
  
  <!-- Diagonal stripe (tan/gray) -->
  <path d="M12 12 L30 12 Q32 12 33 14 L83 84 Q84 86 82 88 L64 88 Q62 88 61 86 L11 16 Q10 14 12 12 Z" fill="#c9c2ba"/>
  
  <!-- White stripe inside diagonal -->
  <path d="M18 17 L28 17 Q29 17 30 19 L78 81 Q79 83 77 84 L67 84 Q66 84 65 82 L17 20 Q16 18 18 17 Z" fill="white"/>
  
  <!-- White center square -->
  <rect x="26" y="34" width="24" height="24" fill="white"/>
</svg>